<svg width="231" height="50" viewBox="0 0 231 50" fill="none" xmlns="http://www.w3.org/2000/svg">
<path d="M32.9118 19.2355C33.8214 19.2355 34.5588 18.4981 34.5588 17.5885C34.5588 16.6788 33.8214 15.9414 32.9118 15.9414C32.0021 15.9414 31.2647 16.6788 31.2647 17.5885C31.2647 18.4981 32.0021 19.2355 32.9118 19.2355Z" fill="#4B489C"/>
<path d="M25.5 13.4708C29.2882 13.4708 29.7 13.4708 31.1824 13.5532C32.5824 13.6355 33.3235 13.8826 33.8176 14.0473C34.4765 14.2944 34.9706 14.6238 35.4647 15.1179C35.9588 15.612 36.2882 16.1061 36.5353 16.7649C36.7 17.2591 36.9471 18.0002 37.0294 19.4002C37.0294 20.8002 37.0294 21.212 37.0294 25.0002C37.0294 28.7885 37.0294 29.2002 36.9471 30.6826C36.8647 32.0826 36.6176 32.8238 36.4529 33.3179C36.2059 33.9767 35.8765 34.4708 35.3824 34.965C34.8882 35.4591 34.3941 35.7885 33.7353 36.0355C33.2412 36.2002 32.5 36.4473 31.1 36.5297C29.7 36.5297 29.2882 36.5297 25.5 36.5297C21.7118 36.5297 21.3 36.5297 19.8176 36.4473C18.4176 36.365 17.6765 36.1179 17.1824 35.9532C16.5235 35.7061 16.0294 35.3767 15.5353 34.8826C15.0412 34.3885 14.7118 33.8944 14.4647 33.2355C14.3 32.7414 14.0529 32.0002 13.9706 30.6002C13.9706 29.2002 13.9706 28.7885 13.9706 25.0002C13.9706 21.212 13.9706 20.8002 14.0529 19.3179C14.1353 17.9179 14.3824 17.1767 14.5471 16.6826C14.7941 16.0238 15.1235 15.5297 15.6176 15.0355C16.1118 14.5414 16.6059 14.212 17.2647 13.965C17.7588 13.8002 18.5 13.5532 19.9 13.4708C21.3 13.4708 21.7118 13.4708 25.5 13.4708ZM25.5 11.0002C21.7118 11.0002 21.2176 11.0002 19.7353 11.0826C18.2529 11.165 17.2647 11.412 16.3588 11.7414C15.4529 12.0708 14.6294 12.5649 13.8882 13.3885C13.1471 14.212 12.6529 14.9532 12.2412 15.8591C11.9118 16.7649 11.6647 17.7532 11.5824 19.2355C11.5 20.7179 11.5 21.212 11.5 25.0002C11.5 28.7885 11.5 29.2826 11.5824 30.7649C11.6647 32.2473 11.9118 33.2355 12.2412 34.1414C12.5706 35.0473 13.0647 35.8708 13.8882 36.612C14.6294 37.3532 15.4529 37.8473 16.3588 38.2591C17.2647 38.5885 18.2529 38.8355 19.7353 38.9179C21.2176 39.0002 21.7118 39.0002 25.5 39.0002C29.2882 39.0002 29.7824 39.0002 31.2647 38.9179C32.7471 38.8355 33.7353 38.5885 34.6412 38.2591C35.5471 37.9297 36.3706 37.4355 37.1118 36.612C37.8529 35.8708 38.3471 35.0473 38.7588 34.1414C39.0882 33.2355 39.3353 32.2473 39.4176 30.7649C39.5 29.2826 39.5 28.7885 39.5 25.0002C39.5 21.212 39.5 20.7179 39.4176 19.2355C39.3353 17.7532 39.0882 16.7649 38.7588 15.8591C38.4294 14.9532 37.9353 14.1297 37.1118 13.3885C36.2882 12.6473 35.5471 12.1532 34.6412 11.7414C33.7353 11.412 32.7471 11.165 31.2647 11.0826C29.7824 11.0002 29.2882 11.0002 25.5 11.0002Z" fill="#4B489C"/>
<path d="M25.5 17.5885C21.3824 17.5885 18.0882 20.8826 18.0882 25.0002C18.0882 29.1179 21.3824 32.412 25.5 32.412C29.6176 32.412 32.9118 29.1179 32.9118 25.0002C32.9118 20.8826 29.6176 17.5885 25.5 17.5885ZM25.5 29.9414C22.7824 29.9414 20.5588 27.7179 20.5588 25.0002C20.5588 22.2826 22.7824 20.0591 25.5 20.0591C28.2176 20.0591 30.4412 22.2826 30.4412 25.0002C30.4412 27.7179 28.2176 29.9414 25.5 29.9414Z" fill="#4B489C"/>
<path fill-rule="evenodd" clip-rule="evenodd" d="M0.5 5.5558C0.5 2.48774 2.9875 0.000244141 6.05556 0.000244141H44.9444C48.0125 0.000244141 50.5 2.48774 50.5 5.5558V44.4447C50.5 47.5127 48.0125 50.0002 44.9444 50.0002H6.05556C2.9875 50.0002 0.5 47.5127 0.5 44.4447V5.5558ZM4.5 4.00024V46.0002H46.5V4.00024H4.5Z" fill="#4B489C"/>
<path fill-rule="evenodd" clip-rule="evenodd" d="M60.5 5.5558C60.5 2.48774 62.9875 0.000244141 66.0556 0.000244141H104.944C108.012 0.000244141 110.5 2.48774 110.5 5.5558V44.4447C110.5 47.5127 108.012 50.0002 104.944 50.0002H66.0556C62.9875 50.0002 60.5 47.5127 60.5 44.4447V5.5558ZM64.5 4.00024V46.0002H106.5V4.00024H64.5Z" fill="#4B489C"/>
<path fill-rule="evenodd" clip-rule="evenodd" d="M96.875 40.7502C99.2917 40.7502 101.25 38.792 101.25 36.3752V13.6252C101.25 11.2085 99.2917 9.25024 96.875 9.25024H74.125C71.7091 9.25024 69.75 11.2085 69.75 13.6252V36.3752C69.75 38.792 71.7091 40.7502 74.125 40.7502H96.875ZM79.375 20.6252H75V35.5002H79.375V20.6252ZM77.1499 18.8752H77.1744C78.5306 18.8752 79.375 17.9014 79.375 16.6869C79.3505 15.4452 78.5306 14.5002 77.1997 14.5002C75.8706 14.5002 75 15.4452 75 16.6869C75 17.9022 75.8444 18.8752 77.1499 18.8752ZM91.625 35.5002H96L95.9991 26.99C95.9991 22.594 93.6515 20.6252 90.5208 20.6252C87.9938 20.6252 87.0059 21.9377 86.375 22.9142V20.6252H82V35.5002H86.375V27.6252C86.375 27.5522 86.3739 27.467 86.3727 27.3744C86.3669 26.924 86.3589 26.2981 86.4634 26.0441C86.8081 25.1884 87.5186 24.3029 88.832 24.3029C90.5531 24.3029 91.625 25.6154 91.625 27.5386V35.5002Z" fill="#4B489C"/>
<path fill-rule="evenodd" clip-rule="evenodd" d="M120.5 5.5558C120.5 2.48774 122.987 0.000244141 126.056 0.000244141H164.944C168.012 0.000244141 170.5 2.48774 170.5 5.5558V44.4447C170.5 47.5127 168.012 50.0002 164.944 50.0002H126.056C122.987 50.0002 120.5 47.5127 120.5 44.4447V5.5558ZM124.5 4.00024V46.0002H166.5V4.00024H124.5Z" fill="#4B489C"/>
<path d="M133.952 10.0002C132.047 10.0002 130.5 11.5469 130.5 13.4526V35.5479C130.5 37.4536 132.047 39.0002 133.952 39.0002H156.048C157.953 39.0002 159.5 37.4536 159.5 35.5479V13.4526C159.5 11.5469 157.953 10.0002 156.048 10.0002H133.952ZM136.024 19.6669H140.671C141.175 19.6669 143.902 19.6326 143.902 22.1321C143.902 23.4578 142.997 23.9062 142.59 24.1065C143.198 24.2998 144.31 24.8593 144.31 26.5717C144.31 29.2162 141.278 29.3336 140.871 29.3336H136.024V19.6669ZM147.762 19.6669H152.595V21.0479H147.762V19.6669ZM138.095 21.3446V23.6102H140.319C140.623 23.6102 141.63 23.4438 141.63 22.4288C141.63 21.4138 140.318 21.3446 140.118 21.3446H138.095ZM150.338 21.7383C153.031 21.7383 153.762 23.8372 153.872 24.3344C153.976 24.8384 153.976 25.2805 153.976 25.8812H148.521C148.521 26.4819 148.839 27.8353 150.448 27.8353C150.876 27.8353 151.193 27.7321 151.518 27.5319C151.835 27.3316 151.947 27.1374 152.05 26.9371H153.866C153.548 27.7312 153.12 28.333 152.478 28.7335C151.836 29.1339 151.09 29.3336 150.234 29.3336C149.695 29.3336 149.164 29.2304 148.625 29.0301C148.197 28.8299 147.769 28.5327 147.452 28.2358C147.134 27.932 146.92 27.5314 146.706 27.0342C146.492 26.6338 146.381 26.0331 146.381 25.536C146.381 25.0388 146.582 21.7383 150.338 21.7383ZM150.338 23.1395C148.777 23.1395 148.521 24.6382 148.521 24.7349H151.947C151.836 24.2378 151.387 23.1395 150.338 23.1395ZM138.095 24.9911V27.6559H140.409C140.609 27.6559 142.017 27.5942 142.017 26.3721C142.017 25.1568 140.911 24.9911 140.409 24.9911H138.095Z" fill="#4B489C"/>
<path fill-rule="evenodd" clip-rule="evenodd" d="M180.5 5.5558C180.5 2.48774 182.987 0.000244141 186.056 0.000244141H224.944C228.012 0.000244141 230.5 2.48774 230.5 5.5558V44.4447C230.5 47.5127 228.012 50.0002 224.944 50.0002H186.056C182.987 50.0002 180.5 47.5127 180.5 44.4447V5.5558ZM184.5 4.00024V46.0002H226.5V4.00024H184.5Z" fill="#4B489C"/>
<path d="M200.798 39.0002C201.262 38.8023 201.587 38.345 201.587 37.8127V34.32C201.587 34.1926 201.597 34.06 201.614 33.9254C201.605 33.928 201.596 33.93 201.587 33.9319C201.587 33.9319 199.63 33.9319 199.239 33.9319C198.261 33.9319 197.413 33.5438 197.022 32.7677C196.565 31.9268 196.37 30.5039 195.196 29.7277C195 29.5983 195.13 29.4043 195.522 29.4043C195.913 29.469 196.761 29.9864 197.283 30.6979C197.87 31.4094 198.457 31.9915 199.5 31.9915C201.122 31.9915 201.991 31.9107 202.514 31.6325C203.123 30.7341 203.967 30.0511 204.848 30.0511V30.0349C201.151 29.9172 198.79 28.6986 197.69 26.8171C195.3 26.8443 193.219 27.079 192.031 27.2744C191.993 27.0629 191.961 26.8501 191.933 26.636C193.105 26.4445 195.091 26.2175 197.375 26.1742C197.302 25.9957 197.239 25.8126 197.185 25.625C194.896 25.5099 192.92 25.5998 191.846 25.6878C191.833 25.473 191.815 25.2589 191.813 25.0416C192.888 24.9543 194.811 24.867 197.042 24.9698C196.99 24.6464 196.957 24.3159 196.957 23.9718C196.957 22.8722 197.348 21.708 198.066 20.7378C197.74 19.6382 197.283 17.3098 198.196 16.4689C199.957 16.4689 201.196 17.3098 201.783 17.8272C202.891 17.3738 204.13 17.1151 205.5 17.1151C206.87 17.1151 208.109 17.3738 209.152 17.8265C209.739 17.3091 210.978 16.4683 212.739 16.4683C213.717 17.3738 213.196 19.7023 212.87 20.7372C213.587 21.7074 213.978 22.8069 213.913 23.9712C213.913 24.2842 213.884 24.5863 213.841 24.8825C216.123 24.7713 218.098 24.8605 219.192 24.9485C219.19 25.1665 219.17 25.3792 219.158 25.5946C218.069 25.5054 216.044 25.4135 213.707 25.5371C213.649 25.7544 213.578 25.9659 213.495 26.1709C215.808 26.2007 217.842 26.4225 219.07 26.6166C219.042 26.8313 219.009 27.0441 218.971 27.255C217.724 27.0571 215.599 26.8255 213.181 26.8139C212.095 28.6753 209.776 29.8894 206.152 30.031V30.0511C207.848 30.0511 209.413 32.5736 209.413 34.32V37.8127C209.413 38.345 209.738 38.8023 210.202 39.0002C216.176 37.0391 220.5 31.4508 220.5 24.8767C220.5 16.6739 213.772 10.0002 205.5 10.0002C197.228 10.0002 190.5 16.6739 190.5 24.8767C190.5 31.4508 194.824 37.0391 200.798 39.0002Z" fill="#4B489C"/>
</svg>
