<svg width="293" height="110" viewBox="0 0 293 110" fill="none" xmlns="http://www.w3.org/2000/svg">
<path fill-rule="evenodd" clip-rule="evenodd" d="M0.5 5.5558C0.5 2.48774 2.9875 0.000244141 6.05556 0.000244141H44.9444C48.0125 0.000244141 50.5 2.48774 50.5 5.5558V44.4447C50.5 47.5127 48.0125 50.0002 44.9444 50.0002H6.05556C2.9875 50.0002 0.5 47.5127 0.5 44.4447V5.5558ZM4.5 4.00024V46.0002H46.5V4.00024H4.5ZM15.5101 30.0981H21.8003L23.0087 33.756H26.8229L20.3061 16.0002H16.9822L10.5 33.7572H14.3142L15.5101 30.0981ZM20.8323 27.1345H16.4795L18.6449 20.4874L20.8323 27.1345ZM31.4808 33.5001C32.2735 33.8331 33.1725 34.0002 34.1778 34.0002C34.8089 34.0002 35.3875 33.9334 35.9178 33.7984C36.4495 33.6647 36.9245 33.486 37.3471 33.2622C37.7697 33.0385 38.137 32.784 38.4477 32.4998C38.7584 32.2157 39.018 31.9225 39.2252 31.6217L37.5266 29.6828C37.1441 30.1868 36.6856 30.5597 36.1512 30.7988C35.6181 31.0392 35.0354 31.1588 34.4057 31.1588C33.9596 31.1588 33.5564 31.0907 33.1973 30.9518C32.8397 30.813 32.5262 30.6201 32.2597 30.372C31.9931 30.1238 31.7736 29.8255 31.6023 29.4758C31.4311 29.1274 31.3165 28.7365 31.2612 28.3058H39.5V26.8054C39.5 25.8295 39.3771 24.9424 39.134 24.1452C38.891 23.3481 38.5278 22.6667 38.0459 22.1022C37.5625 21.5365 36.9673 21.0968 36.2575 20.7844C35.5477 20.472 34.726 20.3151 33.7939 20.3151C32.87 20.3151 32.0346 20.4848 31.2889 20.8217C30.5445 21.1598 29.9093 21.6291 29.3887 22.2308C28.8653 22.8325 28.462 23.55 28.1803 24.3831C27.8972 25.2162 27.755 26.133 27.755 27.1332V27.609C27.755 28.4961 27.9014 29.3267 28.1914 30.1032C28.4828 30.8798 28.904 31.5561 29.4591 32.1334C30.0142 32.7107 30.6868 33.1671 31.4808 33.5001ZM32.7969 23.3725C33.0813 23.2375 33.4086 23.1707 33.7842 23.1707C34.182 23.1707 34.5258 23.2324 34.82 23.3545C35.11 23.4767 35.3489 23.6464 35.5367 23.8662C35.7245 24.0861 35.864 24.3458 35.9551 24.6467C36.0476 24.9475 36.0973 25.2728 36.1056 25.6225V25.9028H31.2985C31.3538 25.4965 31.4449 25.1262 31.572 24.7932C31.699 24.459 31.8647 24.1722 32.0677 23.9331C32.2707 23.694 32.5138 23.5062 32.7969 23.3725Z" fill="#524FA4"/>
<path fill-rule="evenodd" clip-rule="evenodd" d="M79.8444 27.778C81.8792 27.778 83.4708 27.2183 84.6181 26.0961C85.7667 24.9739 86.3417 23.4461 86.3417 21.5114C86.3417 19.5766 85.7597 18.003 84.5986 16.7919C83.4375 15.5808 81.8792 14.9739 79.9264 14.9739H73.1986V34.7225H77.1861V27.778H79.8444ZM79.9666 18.2975H77.186V24.4558H79.9263C80.686 24.4558 81.2735 24.2072 81.6902 23.71C82.1068 23.2128 82.3138 22.4891 82.3138 21.5391C82.3138 20.553 82.1013 19.7697 81.6763 19.1864C81.2513 18.603 80.6804 18.3072 79.9666 18.2975Z" fill="#524FA4"/>
<path d="M93.6792 34.9933C95.2792 34.9933 96.5736 34.5961 97.5583 33.8002C98.5431 33.0044 99.0361 31.9516 99.0361 30.6391C99.0361 29.51 98.7139 28.5891 98.0667 27.8794C97.4194 27.1697 96.3153 26.5252 94.75 25.9461C93.6722 25.485 92.9917 25.1294 92.7014 24.8808C92.4111 24.6322 92.2667 24.3447 92.2667 24.0197C92.2667 23.5683 92.3958 23.2141 92.6597 22.9614C92.9236 22.7086 93.2569 22.5822 93.6639 22.5822C94.6597 22.5822 95.1556 23.1794 95.1556 24.3725H98.9944C98.9944 22.9711 98.5111 21.853 97.5431 21.0225C96.575 20.1919 95.2861 19.7752 93.6778 19.7752C92.1514 19.7752 90.9222 20.1933 89.9958 21.0294C89.0694 21.8655 88.6056 22.9252 88.6056 24.21C88.6056 25.2322 88.9014 26.085 89.4944 26.7739C90.0875 27.4627 91.175 28.1266 92.7569 28.7683C93.8333 29.2391 94.525 29.6114 94.8375 29.8864C95.15 30.1614 95.3056 30.4627 95.3056 30.7877C95.3056 31.7197 94.7903 32.185 93.7597 32.185C93.0903 32.185 92.6097 32.0183 92.3153 31.6836C92.0208 31.3489 91.8667 30.8461 91.8472 30.178H88.1986C88.1986 31.0461 88.4319 31.8558 88.8972 32.6058C89.3625 33.3558 90.0083 33.9419 90.8306 34.3627C91.6528 34.7836 92.6028 34.9933 93.6792 34.9933Z" fill="#524FA4"/>
<path fill-rule="evenodd" clip-rule="evenodd" d="M60.5 5.5558C60.5 2.48774 62.9875 0.000244141 66.0556 0.000244141H104.944C108.012 0.000244141 110.5 2.48774 110.5 5.5558V44.4447C110.5 47.5127 108.012 50.0002 104.944 50.0002H66.0556C62.9875 50.0002 60.5 47.5127 60.5 44.4447V5.5558ZM64.6667 45.8336V4.16691H106.333V45.8336H64.6667Z" fill="#524FA4"/>
<path fill-rule="evenodd" clip-rule="evenodd" d="M120.5 5.5558C120.5 2.48775 122.987 0.000244141 126.056 0.000244141H164.944C168.012 0.000244141 170.5 2.48775 170.5 5.5558V44.4447C170.5 47.5127 168.012 50.0002 164.944 50.0002H126.056C122.987 50.0002 120.5 47.5127 120.5 44.4447V5.5558ZM124.667 4.16691V45.8336H166.333V4.16691H124.667Z" fill="#524FA4"/>
<path d="M153.222 17.9536C153.033 17.9536 152.974 18.0332 152.974 18.2023H152.994V34.5186C152.994 34.6878 153.053 34.7872 153.262 34.7872H156.476C156.685 34.7872 156.724 34.7077 156.724 34.5385V18.2023C156.724 18.0133 156.645 17.9536 156.476 17.9536H153.222Z" fill="#524FA4"/>
<path d="M154.854 11.3872C153.68 11.3872 152.745 12.1732 152.745 13.4964C152.745 14.8694 153.62 15.6156 154.814 15.6056C156.078 15.6056 156.963 14.8594 156.963 13.4964C156.963 12.2329 156.118 11.3872 154.854 11.3872Z" fill="#524FA4"/>
<path fill-rule="evenodd" clip-rule="evenodd" d="M136.051 34.5684L137.682 28.3602H144.318L146.019 34.5883C146.059 34.7375 146.159 34.7773 146.328 34.7773H149.76C149.929 34.7773 149.969 34.6778 149.929 34.5087L143.343 12.1732C143.303 12.0041 143.244 11.9643 143.094 11.9643H138.747C138.637 11.9643 138.578 12.024 138.578 12.1732C138.538 13.188 138.468 13.5263 138.369 13.8944L132.489 34.4689C132.449 34.7176 132.489 34.7773 132.698 34.7773H135.742C135.951 34.7773 136.011 34.7375 136.051 34.5684ZM142.684 22.1259C142.979 23.2491 143.247 24.2682 143.433 25.0074H138.528C139.393 21.7939 140.488 17.6949 140.926 15.2773H140.965C141.316 16.9241 142.061 19.7567 142.684 22.1259Z" fill="#524FA4"/>
<path fill-rule="evenodd" clip-rule="evenodd" d="M201.233 27.778C203.268 27.778 204.86 27.2183 206.007 26.0961C207.156 24.9739 207.731 23.4461 207.731 21.5114C207.731 19.5766 207.149 18.003 205.988 16.7919C204.826 15.5808 203.268 14.9739 201.315 14.9739H194.389V34.7225H198.575V27.778H201.233ZM198.575 18.2975H201.356C202.069 18.3072 202.64 18.603 203.065 19.1864C203.49 19.7697 203.703 20.553 203.703 21.5391C203.703 22.4891 203.496 23.2127 203.079 23.71C202.663 24.2072 202.075 24.4558 201.315 24.4558H198.575V18.2975Z" fill="#524FA4"/>
<path d="M217.028 23.6114L218.278 23.7502L218.417 19.8614C218.139 19.7225 217.722 19.7225 217.306 19.7225C216.194 19.7225 215.361 20.278 214.806 21.528L214.667 20.0002H211.056V34.7225H214.944V25.0002C215.222 24.028 215.917 23.6114 217.028 23.6114Z" fill="#524FA4"/>
<path fill-rule="evenodd" clip-rule="evenodd" d="M186.056 0.000244141C182.987 0.000244141 180.5 2.48774 180.5 5.5558V44.4447C180.5 47.5127 182.987 50.0002 186.056 50.0002H224.944C228.012 50.0002 230.5 47.5127 230.5 44.4447V5.5558C230.5 2.48774 228.012 0.000244141 224.944 0.000244141H186.056ZM184.667 45.8336V4.16691H226.333V45.8336H184.667Z" fill="#524FA4"/>
<path fill-rule="evenodd" clip-rule="evenodd" d="M246.056 0.000244141C242.987 0.000244141 240.5 2.48774 240.5 5.5558V44.4447C240.5 47.5127 242.987 50.0002 246.056 50.0002H284.944C288.012 50.0002 290.5 47.5127 290.5 44.4447V5.5558C290.5 2.48774 288.012 0.000244141 284.944 0.000244141H246.056ZM244.667 45.8336V4.16691H286.333V45.8336H244.667Z" fill="#524FA4"/>
<path fill-rule="evenodd" clip-rule="evenodd" d="M251.333 9.16687H279.667L277.167 37.5002L265.5 40.8335L253.833 37.5002L251.333 9.16687ZM258.917 32.0836L265.5 34.2503L272.083 32.0836L272.667 22.5003H261.667L261.417 19.167H272.917L273.167 15.8336H257.917L258.5 25.8336H269.167L268.917 29.5836L265.5 30.7503L262.083 29.5836L261.917 27.5003H258.583L258.917 32.0836Z" fill="#524FA4"/>
<path fill-rule="evenodd" clip-rule="evenodd" d="M10.7632 69.9414H39.5L36.9644 98.6782L25.1316 102.059L13.2988 98.6782L10.7632 69.9414ZM17.6095 80.0838H29.2733L29.0197 83.4646H21.2439L21.4129 86.8454H28.8507L28.5971 90.6488L25.1318 91.8321L21.6665 90.6488L21.582 88.5358H18.2012L18.4547 93.1844L25.1318 95.382L31.8089 93.1844L32.4005 83.4646L32.8231 76.703H17.356L17.6095 80.0838Z" fill="#524FA4"/>
<path fill-rule="evenodd" clip-rule="evenodd" d="M6.05556 60.0002C2.9875 60.0002 0.5 62.4877 0.5 65.5558V104.445C0.5 107.513 2.9875 110 6.05556 110H44.9444C48.0125 110 50.5 107.513 50.5 104.445V65.5558C50.5 62.4877 48.0125 60.0002 44.9444 60.0002H6.05556ZM4.66667 105.834V64.1669H46.3333V105.834H4.66667Z" fill="#524FA4"/>
<path d="M77.7537 95.1465C77.5468 95.1465 77.3627 95.1335 77.2068 95.1091V95.8062C77.527 95.9356 77.7919 96.0002 78.0087 96.0002C78.8204 96.0002 79.5684 95.4972 80.2512 94.4867C81.1239 93.1787 81.8294 91.0787 82.3649 88.1925H81.1182C80.9188 89.8726 80.5216 91.5225 79.9353 93.1068C79.975 92.8064 79.8772 92.2789 79.6449 91.5229L78.615 88.1925H77.3258L78.7623 92.6469C78.9791 93.3152 79.0882 93.7608 79.0882 93.9793C79.0882 94.2941 78.9493 94.5787 78.6702 94.8331C78.4379 95.0401 78.1333 95.1465 77.7537 95.1465Z" fill="#524FA4"/>
<path d="M96.0993 86.1471V93.9505H99.8251V92.9904H97.353V86.1471H96.0993Z" fill="#524FA4"/>
<path d="M69.9733 87.7268H69.9875L71.9708 93.9505H72.9696L74.9671 87.7268H74.9784C75.1963 89.7946 75.324 91.8712 75.3609 93.9505H76.6784C76.5973 91.3412 76.395 88.7371 76.0721 86.1471H74.5208L72.6126 91.8822H72.6012L70.71 86.1471H69.0808C68.7595 88.7368 68.5657 91.3412 68.5 93.9505H69.6971C69.7353 91.668 69.8274 89.5939 69.9733 87.7268Z" fill="#524FA4"/>
<path d="M94.9618 89.9029C94.9618 87.3214 93.9447 86.0278 91.9089 86.0278C90.9116 86.0278 90.1324 86.3555 89.5714 87.0109C88.9623 87.7282 88.6563 88.7832 88.6563 90.1789C88.6563 91.5501 88.9254 92.5577 89.4694 93.1988C89.9653 93.778 90.7118 94.067 91.712 94.067C92.086 94.067 92.4288 94.021 92.7391 93.929L94.6162 95.0185L95.1262 94.1417H95.1219L93.6826 93.436C93.8101 93.3282 93.9333 93.2132 94.0438 93.0838C94.6572 92.368 94.9618 91.3072 94.9618 89.9029ZM91.8409 93.1011C91.2105 93.1011 90.7501 92.8653 90.4554 92.3953L90.4583 92.3881C90.1395 91.8807 89.9808 91.0614 89.9808 89.9389C89.9808 87.9725 90.5815 86.9894 91.78 86.9894C92.4076 86.9894 92.8708 87.2251 93.1641 87.6951C93.4814 88.2054 93.6401 89.0161 93.6401 90.1271C93.6401 92.1078 93.0394 93.1011 91.8409 93.1011ZM87.1999 90.1444C87.1999 90.1444 86.0751 89.5019 85.5183 89.1986C84.9064 88.8594 84.5749 88.4612 84.5749 87.9998C84.576 87.8578 84.6081 87.7178 84.6688 87.5898C84.7296 87.4618 84.8174 87.3491 84.9262 87.2596C85.1415 87.0641 85.4518 86.9693 85.8527 86.9693C86.3471 86.9693 86.85 87.0785 87.36 87.2941L87.6618 86.6229C87.0703 86.2382 86.3809 86.0374 85.6784 86.045C84.9701 86.045 84.3964 86.2376 83.9501 86.63C83.5067 87.0181 83.2843 87.5255 83.2843 88.1608C83.2843 88.9241 83.5818 89.3883 84.1796 89.8224C84.1796 89.8224 85.2775 90.4491 85.8272 90.7495C86.4193 91.0816 86.7452 91.4768 86.7452 91.9425C86.7475 92.1111 86.7102 92.2778 86.6363 92.4288C86.5624 92.5798 86.454 92.7108 86.3202 92.8107C86.051 93.0177 85.6813 93.1212 85.2109 93.1212C84.7052 93.1212 84.1456 92.9688 83.5251 92.6583L83.1894 93.3296C83.9104 93.814 84.6485 94.0569 85.4178 94.0569C86.2408 94.0569 86.8911 93.8456 87.3784 93.4216C87.8658 92.999 88.1094 92.4542 88.1094 91.7902L88.1179 91.7945C88.1179 91.0341 87.8133 90.5756 87.1999 90.1444Z" fill="#524FA4"/>
<path d="M91.7403 75.3309C91.5774 75.3309 91.4669 75.3511 91.3521 75.3769V75.3956H91.372C91.4485 75.5422 91.5788 75.65 91.6751 75.7808C91.7516 75.9318 91.8168 76.0827 91.8933 76.2322L91.9131 76.2106C92.0463 76.1172 92.1115 75.9677 92.1115 75.7406C92.0548 75.6745 92.0463 75.6084 91.9981 75.5437C91.9415 75.4488 91.8196 75.4028 91.7431 75.3281L91.7403 75.3309Z" fill="#524FA4"/>
<path d="M102.068 86.0134C101.789 85.6475 101.457 85.3263 101.083 85.0604C100.78 84.8549 100.117 84.566 99.9925 84.221L99.9741 84.2009C100.181 84.1822 100.427 84.1074 100.626 84.0514C100.947 83.9666 101.242 83.9853 101.575 83.9019C101.725 83.8645 101.877 83.8171 102.028 83.7697V83.6849C101.858 83.5153 101.731 83.2853 101.555 83.1272C101.064 82.6997 100.541 82.3114 99.9911 81.9658C99.6936 81.776 99.3168 81.6553 99.0037 81.4943C98.8903 81.4383 98.7005 81.4095 98.6353 81.3146C98.4653 81.1091 98.3662 80.8346 98.2458 80.5888C97.9738 80.0699 97.7074 79.4949 97.4708 78.9473C97.3008 78.5779 97.1974 78.2099 96.9892 77.8707C96.0117 76.2666 94.9534 75.2935 93.3257 74.3434C92.9758 74.1465 92.5564 74.0617 92.113 73.9568C91.8764 73.9453 91.6399 73.928 91.4047 73.918C91.2489 73.8519 91.0987 73.6722 90.9655 73.5859C90.4272 73.2467 89.0332 72.5137 88.6365 73.4839C88.3815 74.0962 89.0148 74.6999 89.2344 75.0104C89.3973 75.226 89.6027 75.4732 89.716 75.7161C89.7826 75.88 89.801 76.0481 89.8676 76.2192C90.0178 76.6346 90.1609 77.096 90.3592 77.4855C90.4626 77.6824 90.5759 77.8908 90.7091 78.0676C90.7856 78.1711 90.9159 78.2186 90.9457 78.3882C90.8125 78.5808 90.804 78.8596 90.7275 79.0939C90.3875 80.1619 90.5207 81.4828 91.0024 82.2691C91.1539 82.5033 91.5152 83.0222 91.9983 82.8239C92.4233 82.6543 92.3298 82.1181 92.4516 81.6452C92.4799 81.5317 92.4615 81.4569 92.5196 81.3808V81.4023C92.6528 81.6682 92.7859 81.9198 92.9078 82.1857C93.1996 82.6485 93.7096 83.1286 94.136 83.4491C94.3627 83.6187 94.5426 83.912 94.8259 84.0169V83.9881H94.8047C94.7438 83.9062 94.663 83.8674 94.5865 83.7999C94.407 83.6249 94.2413 83.436 94.0907 83.235C93.692 82.6924 93.3381 82.1174 93.0324 81.5159C92.8766 81.2198 92.7463 80.9007 92.6216 80.6089C92.5649 80.4968 92.5649 80.3272 92.47 80.2697C92.3284 80.4752 92.1201 80.6549 92.0167 80.9093C91.8368 81.3161 91.8184 81.8149 91.7504 82.3352C91.7121 82.3452 91.7305 82.3352 91.7121 82.3553C91.4089 82.282 91.3055 81.9686 91.1922 81.7056C90.9089 81.0358 90.8621 79.9592 91.1072 79.1859C91.1738 78.989 91.4571 78.3652 91.3438 78.1754C91.2843 77.9958 91.0973 77.8937 90.9939 77.7485C90.8612 77.5597 90.7473 77.3579 90.6539 77.1463C90.4272 76.6188 90.3139 76.0338 90.0674 75.5063C89.954 75.2619 89.7557 75.0061 89.5942 74.7818C89.4143 74.5274 89.2159 74.3492 89.0729 74.0473C89.0261 73.9438 88.9595 73.7728 89.0346 73.6607C89.0544 73.5845 89.0941 73.5543 89.1678 73.5342C89.2924 73.4321 89.6424 73.5658 89.7656 73.6219C90.1155 73.7627 90.4102 73.895 90.7034 74.0933C90.8366 74.1868 90.9797 74.365 91.1497 74.4124H91.348C91.6512 74.4785 91.9926 74.4325 92.2759 74.5159C92.7789 74.6769 93.2322 74.9112 93.6388 75.1656C94.8867 75.9574 95.9058 77.0702 96.5925 78.391C96.7058 78.6081 96.7554 78.8079 96.8588 79.0336C97.0572 79.4993 97.3023 79.9693 97.5034 80.4192C97.7018 80.8633 97.893 81.3175 98.1778 81.6855C98.3194 81.8824 98.8889 81.9859 99.1439 82.0894C99.3323 82.1742 99.6256 82.2518 99.7956 82.3553C100.121 82.5522 100.439 82.7793 100.745 82.9964C100.901 83.1042 101.372 83.3399 101.401 83.5296C100.643 83.5095 100.055 83.5857 99.5633 83.7955C99.4216 83.8516 99.1949 83.8516 99.1751 84.0313C99.253 84.106 99.2643 84.2282 99.3309 84.3331C99.4443 84.5214 99.6398 84.7744 99.8211 84.9081C100.019 85.0633 100.218 85.2128 100.426 85.345C100.794 85.5707 101.212 85.7044 101.574 85.9315C101.779 86.0637 101.989 86.2319 102.197 86.3727C102.3 86.4432 102.367 86.5711 102.5 86.6156V86.5883C102.435 86.5035 102.415 86.3814 102.351 86.2865C102.256 86.1916 102.161 86.1068 102.068 86.0134Z" fill="#524FA4"/>
<path fill-rule="evenodd" clip-rule="evenodd" d="M66.0556 60.0002C62.9875 60.0002 60.5 62.4877 60.5 65.5558V104.445C60.5 107.513 62.9875 110 66.0556 110H104.944C108.012 110 110.5 107.513 110.5 104.445V65.5558C110.5 62.4877 108.012 60.0002 104.944 60.0002H66.0556ZM64.6667 105.834V64.1669H106.333V105.834H64.6667Z" fill="#524FA4"/>
<path d="M140.467 70.0002C137.725 70.0002 135.5 72.2253 135.5 74.9669C135.5 77.7055 137.72 79.9286 140.458 79.9336C137.72 79.9385 135.5 82.1617 135.5 84.9002C135.5 87.6388 137.72 89.8619 140.458 89.8669C137.72 89.8718 135.5 92.095 135.5 94.8335C135.5 97.5751 137.725 99.8002 140.467 99.8002C143.208 99.8002 145.433 97.5751 145.433 94.8335V79.9336V70.0002H140.467Z" fill="#524FA4"/>
<path d="M145.433 70.0002H150.4C153.142 70.0002 155.367 72.2253 155.367 74.9669C155.367 77.7055 153.147 79.9286 150.409 79.9336C153.147 79.9385 155.367 82.1617 155.367 84.9002C155.367 87.6418 153.142 89.8669 150.4 89.8669C147.658 89.8669 145.433 87.6418 145.433 84.9002C145.433 82.163 147.651 79.9407 150.387 79.9336H145.433V70.0002Z" fill="#524FA4"/>
<path fill-rule="evenodd" clip-rule="evenodd" d="M126.056 60.0002C122.987 60.0002 120.5 62.4877 120.5 65.5558V104.445C120.5 107.513 122.987 110 126.056 110H164.944C168.012 110 170.5 107.513 170.5 104.445V65.5558C170.5 62.4877 168.012 60.0002 164.944 60.0002H126.056ZM124.667 105.834V64.1669H166.333V105.834H124.667Z" fill="#524FA4"/>
<path fill-rule="evenodd" clip-rule="evenodd" d="M205.713 70.0002H207.805V72.7909C208.585 72.7909 209.365 72.7913 210.144 72.7916C212.89 72.7928 215.635 72.794 218.38 72.7803C218.466 72.7839 218.554 72.786 218.642 72.7881C219.162 72.8008 219.705 72.8141 220.148 73.1152C220.458 73.5577 220.472 74.1027 220.485 74.6228C220.487 74.7095 220.489 74.7956 220.493 74.8803C220.477 80.2019 220.481 85.5208 220.484 90.8393L220.486 93.0408C220.481 93.3291 220.486 93.6192 220.492 93.9096C220.506 94.6417 220.52 95.3763 220.366 96.0933C220.229 96.8005 219.389 96.8348 218.802 96.8588L218.757 96.8607C216.815 96.8662 214.872 96.8639 212.929 96.8615C211.221 96.8595 209.513 96.8574 207.805 96.8607V100H205.618C202.093 99.3656 198.564 98.7627 195.035 98.1597C193.19 97.8445 191.345 97.5293 189.5 97.2095V72.7946C191.285 72.4869 193.07 72.1808 194.855 71.8748C198.475 71.2541 202.095 70.6335 205.713 70.0002ZM207.805 73.8374H219.426V95.8141H207.805V93.7211H210.622V91.2793H207.805V89.8839H210.622V87.4421H207.805V86.0467H210.622V83.6048H207.805V82.2095H210.622V79.7676H207.805V78.3723H210.622V75.9304H207.805V73.8374ZM216.961 75.9304H212.03V78.3723H216.961V75.9304ZM199.931 79.1989C200.726 79.1431 201.526 79.0943 202.325 79.0561C201.386 80.9659 200.439 82.8717 199.483 84.7734C199.999 85.8137 200.521 86.8501 201.043 87.8868C201.501 88.7965 201.959 89.7069 202.413 90.6199C201.565 90.5717 200.718 90.5182 199.871 90.4594C199.69 90.019 199.496 89.5831 199.303 89.1471C198.858 88.1429 198.413 87.1385 198.113 86.078C197.824 86.9332 197.461 87.759 197.097 88.5849C196.858 89.1268 196.62 89.6687 196.402 90.2188C195.631 90.2082 194.86 90.177 194.088 90.1454C194.405 89.5324 194.717 88.9177 195.029 88.3029C195.611 87.1581 196.193 86.0127 196.8 84.878C196.329 83.8112 195.832 82.7569 195.334 81.7024C194.993 80.9809 194.653 80.2594 194.321 79.5338C195.095 79.4883 195.87 79.4431 196.645 79.4013C196.781 79.7547 196.92 80.107 197.059 80.4592C197.457 81.4665 197.856 82.4741 198.177 83.5106C198.501 82.4752 198.938 81.4822 199.374 80.489C199.563 80.0602 199.751 79.6313 199.931 79.1989ZM216.961 79.7677H212.03V82.2096H216.961V79.7677ZM216.961 83.605H212.03V86.0468H216.961V83.605ZM216.961 87.4422H212.03V89.884H216.961V87.4422ZM216.961 91.2794H212.03V93.7212H216.961V91.2794Z" fill="#524FA4"/>
<path fill-rule="evenodd" clip-rule="evenodd" d="M186.056 60.0002C182.987 60.0002 180.5 62.4877 180.5 65.5558V104.445C180.5 107.513 182.987 110 186.056 110H224.944C228.012 110 230.5 107.513 230.5 104.445V65.5558C230.5 62.4877 228.012 60.0002 224.944 60.0002H186.056ZM184.667 105.834V64.1669H226.333V105.834H184.667Z" fill="#524FA4"/>
<path d="M245.701 85.0002C245.701 92.9202 250.485 99.7577 257.425 103L247.5 76.8602C246.347 79.349 245.701 82.0952 245.701 85.0002ZM280.545 83.9927C280.545 81.5215 279.163 79.8052 278.374 78.4777C277.317 76.8165 276.325 75.4315 276.325 73.7877C276.325 71.9565 278.238 70.2377 280.279 70.2377C280.371 70.2377 280.454 70.2452 280.546 70.2477C276.849 66.9802 271.918 65.0002 266.501 65.0002C259.496 65.0002 253.302 68.3327 249.534 73.4365C249.83 73.529 249.933 73.4852 250.328 73.4852C252.498 73.4852 255.871 73.2352 255.871 73.2352C256.989 73.164 257.126 74.7502 256 74.8802C256 74.8802 254.877 75.0115 253.623 75.0702L261.334 97.2927L265.884 84.1665L262.5 75.1065C261.381 75.049 260.317 74.9165 260.317 74.9165C259.197 74.8465 259.327 73.1977 260.445 73.2715C260.445 73.2715 263.887 73.5215 265.927 73.5215C268.104 73.5215 271.47 73.2715 271.47 73.2715C272.589 73.2002 272.724 74.7865 271.605 74.9165C271.605 74.9165 270.474 75.0477 269.223 75.1065L276.882 97.119L278.96 90.4615C280.019 87.8615 280.545 85.7115 280.545 83.9927ZM266.865 86.7452L260.625 104.185C262.492 104.718 264.46 105 266.501 105C268.921 105 271.245 104.595 273.412 103.866C273.36 103.778 273.302 103.688 273.259 103.591L266.865 86.7452ZM284.756 75.3977C284.848 76.0352 284.896 76.7215 284.896 77.454C284.896 79.489 284.498 81.7677 283.312 84.6252L276.961 102.294C283.146 98.829 287.3 92.3777 287.3 85.0002C287.3 81.524 286.376 78.2552 284.756 75.3977Z" fill="#524FA4"/>
<path d="M240.5 85.0002C240.5 98.7802 252.161 110 266.499 110C280.839 110 292.5 98.7802 292.5 85.0002C292.5 71.2202 280.839 60.0002 266.5 60.0002C252.161 60.0002 240.5 71.2202 240.5 85.0002ZM243.093 85.0002C243.093 72.5952 253.59 62.5015 266.499 62.5015C279.408 62.5015 289.907 72.5952 289.907 85.0002C289.907 97.4052 279.408 107.501 266.5 107.501C253.594 107.501 243.093 97.4052 243.093 85.0002Z" fill="#524FA4"/>
</svg>
