<svg width="51" height="74" viewBox="0 0 51 74" fill="none" xmlns="http://www.w3.org/2000/svg">
<path d="M18.7609 0L18.5917 0.428634L13.9137 12.2322H26.9163C32.8072 12.2322 37.5779 17.024 37.5779 22.936C37.5779 25.8919 36.3852 28.5648 34.4552 30.5017C32.5251 32.4387 29.8577 33.6356 26.9163 33.6356H5.65755C5.58099 33.6639 5.49637 33.672 5.41176 33.6639L0.5 46.062H12.5396L28.8665 70.9066C30.1357 72.8354 32.2834 74 34.5882 74H48.4209L29.9786 45.9326C30.7684 45.8476 31.546 45.7263 32.3076 45.5646C36.7358 44.6305 40.6966 42.4105 43.7791 39.3171C47.9333 35.148 50.5 29.3897 50.5 23.033C50.5 10.3115 40.2252 0 27.5489 0H18.7609Z" fill="url(#paint0_linear_203_77)"/>
<defs>
<linearGradient id="paint0_linear_203_77" x1="25.5" y1="0" x2="25.5" y2="74" gradientUnits="userSpaceOnUse">
<stop stop-color="#706CD9"/>
<stop offset="1" stop-color="#100F40"/>
</linearGradient>
</defs>
</svg>
