<svg width="34" height="51" viewBox="0 0 34 51" fill="none" xmlns="http://www.w3.org/2000/svg">
<path d="M12.4174 0.249023L12.3024 0.538641L9.12128 8.51405H17.9631C21.9689 8.51405 25.213 11.7518 25.213 15.7463C25.213 17.7436 24.402 19.5496 23.0895 20.8583C21.7771 22.1671 19.9633 22.9758 17.9631 22.9758H3.50713C3.45507 22.9949 3.39753 23.0004 3.34 22.9949L0 31.372H8.18696L19.2892 48.1589C20.1523 49.4621 21.6127 50.249 23.1799 50.249H32.5862L20.0455 31.2845C20.5825 31.2272 21.1113 31.1452 21.6291 31.0359C24.6403 30.4048 27.3337 28.9048 29.4298 26.8146C32.2547 23.9977 34 20.1069 34 15.8119C34 7.21624 27.0131 0.249023 18.3933 0.249023H12.4174Z" fill="white"/>
</svg>
