<svg width="51" height="50" viewBox="0 0 51 50" fill="none" xmlns="http://www.w3.org/2000/svg">
<path fill-rule="evenodd" clip-rule="evenodd" d="M0.5 5.5558C0.5 2.48774 2.9875 0.000244141 6.05556 0.000244141H44.9444C48.0125 0.000244141 50.5 2.48774 50.5 5.5558V44.4447C50.5 47.5127 48.0125 50.0002 44.9444 50.0002H6.05556C2.9875 50.0002 0.5 47.5127 0.5 44.4447V5.5558ZM4.5 4.00024V46.0002H46.5V4.00024H4.5ZM15.5101 30.0981H21.8003L23.0087 33.756H26.8229L20.3061 16.0002H16.9822L10.5 33.7572H14.3142L15.5101 30.0981ZM20.8323 27.1345H16.4795L18.6449 20.4874L20.8323 27.1345ZM31.4808 33.5001C32.2735 33.8331 33.1725 34.0002 34.1778 34.0002C34.8089 34.0002 35.3875 33.9334 35.9178 33.7984C36.4495 33.6647 36.9245 33.486 37.3471 33.2622C37.7697 33.0385 38.137 32.784 38.4477 32.4998C38.7584 32.2157 39.018 31.9225 39.2252 31.6217L37.5266 29.6828C37.1441 30.1868 36.6856 30.5597 36.1512 30.7988C35.6181 31.0392 35.0354 31.1588 34.4057 31.1588C33.9596 31.1588 33.5564 31.0907 33.1973 30.9518C32.8397 30.813 32.5262 30.6201 32.2597 30.372C31.9931 30.1238 31.7736 29.8255 31.6023 29.4758C31.4311 29.1274 31.3165 28.7365 31.2612 28.3058H39.5V26.8054C39.5 25.8295 39.3771 24.9424 39.134 24.1452C38.891 23.3481 38.5278 22.6667 38.0459 22.1022C37.5625 21.5365 36.9673 21.0968 36.2575 20.7844C35.5477 20.472 34.726 20.3151 33.7939 20.3151C32.87 20.3151 32.0346 20.4848 31.2889 20.8217C30.5445 21.1598 29.9093 21.6291 29.3887 22.2308C28.8653 22.8325 28.462 23.55 28.1803 24.3831C27.8972 25.2162 27.755 26.133 27.755 27.1332V27.609C27.755 28.4961 27.9014 29.3267 28.1914 30.1032C28.4828 30.8798 28.904 31.5561 29.4591 32.1334C30.0142 32.7107 30.6868 33.1671 31.4808 33.5001ZM32.7969 23.3725C33.0813 23.2375 33.4086 23.1707 33.7842 23.1707C34.182 23.1707 34.5258 23.2324 34.82 23.3545C35.11 23.4767 35.3489 23.6464 35.5367 23.8662C35.7245 24.0861 35.864 24.3458 35.9551 24.6467C36.0476 24.9475 36.0973 25.2728 36.1056 25.6225V25.9028H31.2985C31.3538 25.4965 31.4449 25.1262 31.572 24.7932C31.699 24.459 31.8647 24.1722 32.0677 23.9331C32.2707 23.694 32.5138 23.5062 32.7969 23.3725Z" fill="#524FA4"/>
</svg>
