<svg width="51" height="50" viewBox="0 0 51 50" fill="none" xmlns="http://www.w3.org/2000/svg">
<path fill-rule="evenodd" clip-rule="evenodd" d="M0.5 5.5558C0.5 2.48775 2.9875 0.000244141 6.05555 0.000244141H44.9444C48.0125 0.000244141 50.5 2.48775 50.5 5.5558V44.4447C50.5 47.5127 48.0125 50.0002 44.9444 50.0002H6.05555C2.9875 50.0002 0.5 47.5127 0.5 44.4447V5.5558ZM4.66667 4.16691V45.8336H46.3333V4.16691H4.66667Z" fill="#524FA4"/>
<path d="M33.2225 17.9536C33.0334 17.9536 32.9737 18.0332 32.9737 18.2023H32.9936V34.5186C32.9936 34.6878 33.0533 34.7872 33.2623 34.7872H36.4758C36.6847 34.7872 36.7245 34.7077 36.7245 34.5385V18.2023C36.7245 18.0133 36.6449 17.9536 36.4758 17.9536H33.2225Z" fill="#524FA4"/>
<path d="M34.8541 11.3872C33.6801 11.3872 32.7449 12.1732 32.7449 13.4964C32.7449 14.8694 33.6204 15.6156 34.8143 15.6056C36.0778 15.6056 36.9633 14.8594 36.9633 13.4964C36.9633 12.2329 36.1176 11.3872 34.8541 11.3872Z" fill="#524FA4"/>
<path fill-rule="evenodd" clip-rule="evenodd" d="M16.0505 34.5684L17.6821 28.3602H24.3181L26.0194 34.5883C26.0592 34.7375 26.1587 34.7773 26.3278 34.7773H29.7602C29.9293 34.7773 29.9691 34.6778 29.9293 34.5087L23.3431 12.1732C23.3033 12.0041 23.2436 11.9643 23.0944 11.9643H18.7467C18.6373 11.9643 18.5776 12.024 18.5776 12.1732C18.5378 13.188 18.4681 13.5263 18.3686 13.8944L12.4888 34.4689C12.449 34.7176 12.4888 34.7773 12.6977 34.7773H15.7421C15.951 34.7773 16.0107 34.7375 16.0505 34.5684ZM22.6838 22.1259C22.9791 23.2491 23.2471 24.2682 23.4327 25.0074H18.5278C19.3934 21.7939 20.4878 17.6949 20.9255 15.2773H20.9653C21.3163 16.9241 22.061 19.7567 22.6838 22.1259Z" fill="#524FA4"/>
</svg>
