<svg width="51" height="50" viewBox="0 0 51 50" fill="none" xmlns="http://www.w3.org/2000/svg">
<path fill-rule="evenodd" clip-rule="evenodd" d="M10.7632 9.94141H39.5L36.9644 38.6782L25.1316 42.0591L13.2988 38.6782L10.7632 9.94141ZM17.6095 20.0838H29.2733L29.0197 23.4646H21.2439L21.4129 26.8454H28.8507L28.5971 30.6488L25.1318 31.8321L21.6665 30.6488L21.582 28.5358H18.2012L18.4547 33.1844L25.1318 35.382L31.8089 33.1844L32.4005 23.4646L32.8231 16.703H17.356L17.6095 20.0838Z" fill="#524FA4"/>
<path fill-rule="evenodd" clip-rule="evenodd" d="M6.05556 0.000244141C2.9875 0.000244141 0.5 2.48774 0.5 5.5558V44.4447C0.5 47.5127 2.9875 50.0002 6.05556 50.0002H44.9444C48.0125 50.0002 50.5 47.5127 50.5 44.4447V5.5558C50.5 2.48774 48.0125 0.000244141 44.9444 0.000244141H6.05556ZM4.66667 45.8336V4.16691H46.3333V45.8336H4.66667Z" fill="#524FA4"/>
</svg>
