<svg width="51" height="50" viewBox="0 0 51 50" fill="none" xmlns="http://www.w3.org/2000/svg">
<path fill-rule="evenodd" clip-rule="evenodd" d="M25.713 10.0002H27.8048V12.7909C28.5847 12.7909 29.3646 12.7913 30.1445 12.7916C32.8897 12.7928 35.6347 12.794 38.3797 12.7803C38.466 12.7839 38.5536 12.786 38.6418 12.7881C39.162 12.8008 39.705 12.8141 40.1475 13.1152C40.4583 13.5577 40.4719 14.1027 40.4848 14.6228C40.487 14.7095 40.4891 14.7956 40.4926 14.8803C40.4773 20.2019 40.4809 25.5208 40.4845 30.8393L40.4859 33.0408C40.4809 33.3291 40.4864 33.6192 40.492 33.9096C40.5059 34.6417 40.5199 35.3763 40.3662 36.0933C40.2289 36.8005 39.3891 36.8348 38.802 36.8588L38.7567 36.8607C36.815 36.8662 34.8723 36.8639 32.9292 36.8615C31.2213 36.8595 29.5131 36.8574 27.8048 36.8607V40.0002H25.6178C22.0933 39.3656 18.5642 38.7627 15.0346 38.1597C13.1897 37.8445 11.3446 37.5293 9.5 37.2095V12.7946C11.2852 12.4869 13.0704 12.1808 14.8555 11.8748C18.4755 11.2541 22.0951 10.6335 25.713 10.0002ZM27.8048 13.8374H39.4258V35.8141H27.8048V33.7211H30.622V31.2793H27.8048V29.8839H30.622V27.4421H27.8048V26.0467H30.622V23.6048H27.8048V22.2095H30.622V19.7676H27.8048V18.3723H30.622V15.9304H27.8048V13.8374ZM36.9606 15.9304H32.0305V18.3723H36.9606V15.9304ZM19.9305 19.1989C20.7264 19.1431 21.5259 19.0943 22.3251 19.0561C21.3863 20.9659 20.4391 22.8717 19.4834 24.7734C19.9993 25.8137 20.5209 26.8501 21.0427 27.8868C21.5006 28.7965 21.9588 29.7069 22.413 30.6199C21.5653 30.5717 20.7179 30.5182 19.8708 30.4594C19.6896 30.019 19.4964 29.5831 19.3031 29.1471C18.8581 28.1429 18.413 27.1385 18.1134 26.078C17.8244 26.9332 17.4607 27.759 17.097 28.5849C16.8584 29.1268 16.6198 29.6687 16.4023 30.2188C15.6309 30.2082 14.8596 30.177 14.0885 30.1454C14.4046 29.5324 14.7169 28.9177 15.0293 28.3029C15.6109 27.1581 16.1928 26.0127 16.7998 24.878C16.3294 23.8112 15.8316 22.7569 15.3338 21.7024C14.9932 20.9809 14.6525 20.2594 14.3206 19.5338C15.0954 19.4883 15.8701 19.4431 16.6448 19.4013C16.7807 19.7547 16.92 20.107 17.0592 20.4592C17.4573 21.4665 17.8556 22.4741 18.1768 23.5106C18.5013 22.4752 18.9376 21.4823 19.3741 20.489C19.5625 20.0602 19.751 19.6313 19.9305 19.1989ZM36.9606 19.7677H32.0305V22.2096H36.9606V19.7677ZM36.9606 23.605H32.0305V26.0468H36.9606V23.605ZM36.9606 27.4422H32.0305V29.884H36.9606V27.4422ZM36.9606 31.2794H32.0305V33.7212H36.9606V31.2794Z" fill="#524FA4"/>
<path fill-rule="evenodd" clip-rule="evenodd" d="M6.05556 0.000244141C2.9875 0.000244141 0.5 2.48774 0.5 5.5558V44.4447C0.5 47.5127 2.9875 50.0002 6.05556 50.0002H44.9444C48.0125 50.0002 50.5 47.5127 50.5 44.4447V5.5558C50.5 2.48774 48.0125 0.000244141 44.9444 0.000244141H6.05556ZM4.66667 45.8336V4.16691H46.3333V45.8336H4.66667Z" fill="#524FA4"/>
</svg>
