<svg width="51" height="50" viewBox="0 0 51 50" fill="none" xmlns="http://www.w3.org/2000/svg">
<path d="M20.4667 10.0002C17.7251 10.0002 15.5 12.2253 15.5 14.9669C15.5 17.7055 17.7201 19.9286 20.4575 19.9336C17.7201 19.9385 15.5 22.1617 15.5 24.9002C15.5 27.6388 17.7201 29.8619 20.4575 29.8669C17.7201 29.8718 15.5 32.095 15.5 34.8335C15.5 37.5751 17.7251 39.8002 20.4667 39.8002C23.2083 39.8002 25.4333 37.5751 25.4333 34.8335V19.9336V10.0002H20.4667Z" fill="#524FA4"/>
<path d="M25.4333 10.0002H30.4001C33.1417 10.0002 35.3667 12.2253 35.3667 14.9669C35.3667 17.7055 33.1466 19.9286 30.4092 19.9336C33.1466 19.9385 35.3667 22.1617 35.3667 24.9002C35.3667 27.6418 33.1417 29.8669 30.4001 29.8669C27.6585 29.8669 25.4334 27.6418 25.4334 24.9002C25.4334 22.163 27.6513 19.9407 30.3869 19.9336H25.4333V10.0002Z" fill="#524FA4"/>
<path fill-rule="evenodd" clip-rule="evenodd" d="M6.05556 0.000244141C2.9875 0.000244141 0.5 2.48774 0.5 5.5558V44.4447C0.5 47.5127 2.9875 50.0002 6.05556 50.0002H44.9444C48.0125 50.0002 50.5 47.5127 50.5 44.4447V5.5558C50.5 2.48774 48.0125 0.000244141 44.9444 0.000244141H6.05556ZM4.66667 45.8336V4.16691H46.3333V45.8336H4.66667Z" fill="#524FA4"/>
</svg>
