<svg width="51" height="50" viewBox="0 0 51 50" fill="none" xmlns="http://www.w3.org/2000/svg">
<path fill-rule="evenodd" clip-rule="evenodd" d="M6.05556 0.000244141C2.9875 0.000244141 0.5 2.48774 0.5 5.5558V44.4447C0.5 47.5127 2.9875 50.0002 6.05556 50.0002H44.9444C48.0125 50.0002 50.5 47.5127 50.5 44.4447V5.5558C50.5 2.48774 48.0125 0.000244141 44.9444 0.000244141H6.05556ZM4.66667 45.8336V4.16691H46.3333V45.8336H4.66667Z" fill="#524FA4"/>
<path fill-rule="evenodd" clip-rule="evenodd" d="M11.3335 9.16687H39.6668L37.1668 37.5002L25.5002 40.8335L13.8335 37.5002L11.3335 9.16687ZM18.9165 32.0836L25.4998 34.2503L32.0832 32.0836L32.6665 22.5003H21.6665L21.4165 19.167H32.9165L33.1665 15.8336H17.9165L18.4998 25.8336H29.1665L28.9165 29.5836L25.4998 30.7503L22.0832 29.5836L21.9165 27.5003H18.5832L18.9165 32.0836Z" fill="#524FA4"/>
</svg>
