<svg width="51" height="50" viewBox="0 0 51 50" fill="none" xmlns="http://www.w3.org/2000/svg">
<path fill-rule="evenodd" clip-rule="evenodd" d="M21.2333 27.778C23.2681 27.778 24.8597 27.2183 26.0069 26.0961C27.1556 24.9739 27.7306 23.4461 27.7306 21.5114C27.7306 19.5766 27.1486 18.003 25.9875 16.7919C24.8264 15.5808 23.2681 14.9739 21.3153 14.9739H14.3889V34.7225H18.575V27.778H21.2333ZM18.575 18.2975H21.3556C22.0694 18.3072 22.6403 18.603 23.0653 19.1864C23.4903 19.7697 23.7028 20.553 23.7028 21.5391C23.7028 22.4891 23.4958 23.2127 23.0792 23.71C22.6625 24.2072 22.075 24.4558 21.3153 24.4558H18.575V18.2975Z" fill="#524FA4"/>
<path d="M37.0278 23.6114L38.2778 23.7502L38.4167 19.8614C38.1389 19.7225 37.7222 19.7225 37.3056 19.7225C36.1944 19.7225 35.3611 20.278 34.8056 21.528L34.6667 20.0002H31.0556V34.7225H34.9444V25.0002C35.2222 24.028 35.9167 23.6114 37.0278 23.6114Z" fill="#524FA4"/>
<path fill-rule="evenodd" clip-rule="evenodd" d="M6.05556 0.000244141C2.9875 0.000244141 0.5 2.48774 0.5 5.5558V44.4447C0.5 47.5127 2.9875 50.0002 6.05556 50.0002H44.9444C48.0125 50.0002 50.5 47.5127 50.5 44.4447V5.5558C50.5 2.48774 48.0125 0.000244141 44.9444 0.000244141H6.05556ZM4.66667 45.8336V4.16691H46.3333V45.8336H4.66667Z" fill="#524FA4"/>
</svg>
