<svg width="51" height="50" viewBox="0 0 51 50" fill="none" xmlns="http://www.w3.org/2000/svg">
<path fill-rule="evenodd" clip-rule="evenodd" d="M19.8444 27.778C21.8792 27.778 23.4708 27.2183 24.6181 26.0961C25.7667 24.9739 26.3417 23.4461 26.3417 21.5114C26.3417 19.5766 25.7597 18.003 24.5986 16.7919C23.4375 15.5808 21.8792 14.9739 19.9264 14.9739H13.1986V34.7225H17.1861V27.778H19.8444ZM19.9666 18.2975H17.186V24.4558H19.9263C20.686 24.4558 21.2735 24.2072 21.6902 23.71C22.1068 23.2128 22.3138 22.4891 22.3138 21.5391C22.3138 20.553 22.1013 19.7697 21.6763 19.1864C21.2513 18.603 20.6804 18.3072 19.9666 18.2975Z" fill="#524FA4"/>
<path d="M33.6792 34.9933C35.2792 34.9933 36.5736 34.5961 37.5583 33.8002C38.5431 33.0044 39.0361 31.9516 39.0361 30.6391C39.0361 29.51 38.7139 28.5891 38.0667 27.8794C37.4194 27.1697 36.3153 26.5252 34.75 25.9461C33.6722 25.485 32.9917 25.1294 32.7014 24.8808C32.4111 24.6322 32.2667 24.3447 32.2667 24.0197C32.2667 23.5683 32.3958 23.2141 32.6597 22.9614C32.9236 22.7086 33.2569 22.5822 33.6639 22.5822C34.6597 22.5822 35.1556 23.1794 35.1556 24.3725H38.9944C38.9944 22.9711 38.5111 21.853 37.5431 21.0225C36.575 20.1919 35.2861 19.7752 33.6778 19.7752C32.1514 19.7752 30.9222 20.1933 29.9958 21.0294C29.0694 21.8655 28.6056 22.9252 28.6056 24.21C28.6056 25.2322 28.9014 26.085 29.4944 26.7739C30.0875 27.4627 31.175 28.1266 32.7569 28.7683C33.8333 29.2391 34.525 29.6114 34.8375 29.8864C35.15 30.1614 35.3056 30.4627 35.3056 30.7877C35.3056 31.7197 34.7903 32.185 33.7597 32.185C33.0903 32.185 32.6097 32.0183 32.3153 31.6836C32.0208 31.3489 31.8667 30.8461 31.8472 30.178H28.1986C28.1986 31.0461 28.4319 31.8558 28.8972 32.6058C29.3625 33.3558 30.0083 33.9419 30.8306 34.3627C31.6528 34.7836 32.6028 34.9933 33.6792 34.9933Z" fill="#524FA4"/>
<path fill-rule="evenodd" clip-rule="evenodd" d="M0.5 5.5558C0.5 2.48774 2.9875 0.000244141 6.05556 0.000244141H44.9444C48.0125 0.000244141 50.5 2.48774 50.5 5.5558V44.4447C50.5 47.5127 48.0125 50.0002 44.9444 50.0002H6.05556C2.9875 50.0002 0.5 47.5127 0.5 44.4447V5.5558ZM4.66667 45.8336V4.16691H46.3333V45.8336H4.66667Z" fill="#524FA4"/>
</svg>
