<svg width="51" height="50" viewBox="0 0 51 50" fill="none" xmlns="http://www.w3.org/2000/svg">
<path d="M17.7537 35.1465C17.5468 35.1465 17.3627 35.1335 17.2068 35.1091V35.8062C17.527 35.9356 17.7919 36.0002 18.0087 36.0002C18.8204 36.0002 19.5684 35.4972 20.2512 34.4867C21.1239 33.1787 21.8294 31.0787 22.3649 28.1925H21.1182C20.9188 29.8726 20.5216 31.5225 19.9353 33.1068C19.975 32.8064 19.8772 32.2789 19.6449 31.5229L18.615 28.1925H17.3258L18.7623 32.6469C18.9791 33.3152 19.0882 33.7608 19.0882 33.9793C19.0882 34.2941 18.9493 34.5787 18.6702 34.8331C18.4379 35.0401 18.1333 35.1465 17.7537 35.1465Z" fill="#524FA4"/>
<path d="M36.0993 26.1471V33.9505H39.8251V32.9904H37.353V26.1471H36.0993Z" fill="#524FA4"/>
<path d="M9.97333 27.7268H9.9875L11.9708 33.9505H12.9696L14.9671 27.7268H14.9784C15.1963 29.7946 15.324 31.8712 15.3609 33.9505H16.6784C16.5973 31.3412 16.395 28.7371 16.0721 26.1471H14.5208L12.6126 31.8822H12.6012L10.71 26.1471H9.08083C8.75954 28.7368 8.56569 31.3412 8.5 33.9505H9.69708C9.73533 31.668 9.82741 29.5939 9.97333 27.7268Z" fill="#524FA4"/>
<path d="M34.9618 29.9029C34.9618 27.3214 33.9447 26.0278 31.9089 26.0278C30.9116 26.0278 30.1324 26.3555 29.5714 27.0109C28.9623 27.7282 28.6563 28.7832 28.6563 30.1789C28.6563 31.5501 28.9254 32.5577 29.4694 33.1988C29.9653 33.778 30.7118 34.067 31.712 34.067C32.086 34.067 32.4288 34.021 32.7391 33.929L34.6162 35.0185L35.1262 34.1417H35.1219L33.6826 33.436C33.8101 33.3282 33.9333 33.2132 34.0438 33.0838C34.6572 32.368 34.9618 31.3072 34.9618 29.9029ZM31.8409 33.1011C31.2105 33.1011 30.7501 32.8653 30.4554 32.3953L30.4583 32.3881C30.1395 31.8807 29.9808 31.0614 29.9808 29.9389C29.9808 27.9725 30.5815 26.9894 31.78 26.9894C32.4076 26.9894 32.8708 27.2251 33.1641 27.6951C33.4814 28.2054 33.6401 29.0161 33.6401 30.1271C33.6401 32.1078 33.0394 33.1011 31.8409 33.1011ZM27.1999 30.1444C27.1999 30.1444 26.0751 29.5019 25.5183 29.1986C24.9064 28.8594 24.5749 28.4612 24.5749 27.9998C24.576 27.8578 24.6081 27.7178 24.6688 27.5898C24.7296 27.4618 24.8174 27.3491 24.9262 27.2596C25.1415 27.0641 25.4518 26.9693 25.8527 26.9693C26.3471 26.9693 26.85 27.0785 27.36 27.2941L27.6618 26.6229C27.0703 26.2382 26.3809 26.0374 25.6784 26.045C24.9701 26.045 24.3964 26.2376 23.9501 26.63C23.5067 27.0181 23.2843 27.5255 23.2843 28.1608C23.2843 28.9241 23.5818 29.3883 24.1796 29.8224C24.1796 29.8224 25.2775 30.4491 25.8272 30.7495C26.4193 31.0816 26.7452 31.4768 26.7452 31.9425C26.7475 32.1111 26.7102 32.2778 26.6363 32.4288C26.5624 32.5798 26.454 32.7108 26.3202 32.8107C26.051 33.0177 25.6813 33.1212 25.2109 33.1212C24.7052 33.1212 24.1456 32.9688 23.5251 32.6583L23.1894 33.3296C23.9104 33.814 24.6485 34.0569 25.4178 34.0569C26.2408 34.0569 26.8911 33.8456 27.3784 33.4216C27.8658 32.999 28.1094 32.4542 28.1094 31.7902L28.1179 31.7945C28.1179 31.0341 27.8133 30.5756 27.1999 30.1444Z" fill="#524FA4"/>
<path d="M31.7403 15.3309C31.5774 15.3309 31.4669 15.3511 31.3521 15.3769V15.3956H31.372C31.4485 15.5422 31.5788 15.65 31.6751 15.7808C31.7516 15.9318 31.8168 16.0827 31.8933 16.2322L31.9131 16.2106C32.0463 16.1172 32.1115 15.9677 32.1115 15.7406C32.0548 15.6745 32.0463 15.6084 31.9981 15.5437C31.9415 15.4488 31.8196 15.4028 31.7431 15.3281L31.7403 15.3309Z" fill="#524FA4"/>
<path d="M42.0679 26.0134C41.7886 25.6475 41.4567 25.3263 41.0833 25.0604C40.7802 24.8549 40.1172 24.566 39.9925 24.221L39.9741 24.2009C40.1809 24.1822 40.4274 24.1074 40.6258 24.0514C40.9473 23.9666 41.242 23.9853 41.5749 23.9019C41.7251 23.8645 41.8767 23.8171 42.0282 23.7697V23.6849C41.8582 23.5153 41.7308 23.2853 41.5551 23.1272C41.064 22.6997 40.5411 22.3114 39.9911 21.9658C39.6936 21.776 39.3168 21.6553 39.0037 21.4943C38.8903 21.4383 38.7005 21.4095 38.6353 21.3146C38.4653 21.1091 38.3662 20.8346 38.2458 20.5888C37.9738 20.0699 37.7074 19.4949 37.4708 18.9473C37.3008 18.5779 37.1974 18.2099 36.9892 17.8707C36.0117 16.2666 34.9534 15.2935 33.3257 14.3434C32.9758 14.1465 32.5564 14.0617 32.113 13.9568C31.8764 13.9453 31.6399 13.928 31.4047 13.918C31.2489 13.8519 31.0987 13.6722 30.9655 13.5859C30.4272 13.2467 29.0332 12.5137 28.6365 13.4839C28.3815 14.0962 29.0148 14.6999 29.2344 15.0104C29.3973 15.226 29.6027 15.4732 29.716 15.7161C29.7826 15.88 29.801 16.0481 29.8676 16.2192C30.0178 16.6346 30.1609 17.096 30.3592 17.4855C30.4626 17.6824 30.5759 17.8908 30.7091 18.0676C30.7856 18.1711 30.9159 18.2186 30.9457 18.3882C30.8125 18.5808 30.804 18.8596 30.7275 19.0939C30.3875 20.1619 30.5207 21.4828 31.0024 22.2691C31.1539 22.5033 31.5152 23.0222 31.9983 22.8239C32.4233 22.6543 32.3298 22.1181 32.4516 21.6452C32.4799 21.5317 32.4615 21.4569 32.5196 21.3808V21.4023C32.6528 21.6682 32.7859 21.9198 32.9078 22.1857C33.1996 22.6485 33.7096 23.1286 34.136 23.4491C34.3627 23.6187 34.5426 23.912 34.8259 24.0169V23.9881H34.8047C34.7438 23.9062 34.663 23.8674 34.5865 23.7999C34.407 23.6249 34.2413 23.436 34.0907 23.235C33.692 22.6924 33.3381 22.1174 33.0324 21.5159C32.8766 21.2198 32.7463 20.9007 32.6216 20.6089C32.5649 20.4968 32.5649 20.3272 32.47 20.2697C32.3284 20.4752 32.1201 20.6549 32.0167 20.9093C31.8368 21.3161 31.8184 21.8148 31.7504 22.3352C31.7121 22.3452 31.7305 22.3352 31.7121 22.3553C31.4089 22.282 31.3055 21.9687 31.1922 21.7056C30.9089 21.0358 30.8621 19.9592 31.1072 19.1859C31.1738 18.989 31.4571 18.3652 31.3438 18.1754C31.2843 17.9958 31.0973 17.8937 30.9939 17.7485C30.8612 17.5597 30.7473 17.3579 30.6539 17.1463C30.4272 16.6188 30.3139 16.0338 30.0674 15.5063C29.954 15.2619 29.7557 15.0061 29.5942 14.7818C29.4143 14.5274 29.2159 14.3492 29.0729 14.0473C29.0261 13.9438 28.9595 13.7728 29.0346 13.6607C29.0544 13.5845 29.0941 13.5543 29.1678 13.5342C29.2924 13.4321 29.6424 13.5658 29.7656 13.6219C30.1155 13.7627 30.4102 13.895 30.7034 14.0933C30.8366 14.1868 30.9797 14.365 31.1497 14.4124H31.348C31.6512 14.4785 31.9926 14.4325 32.2759 14.5159C32.7789 14.6769 33.2322 14.9112 33.6388 15.1656C34.8867 15.9574 35.9058 17.0702 36.5925 18.391C36.7058 18.6081 36.7554 18.8079 36.8588 19.0336C37.0572 19.4993 37.3023 19.9693 37.5034 20.4192C37.7018 20.8633 37.893 21.3175 38.1778 21.6855C38.3194 21.8824 38.8889 21.9859 39.1439 22.0894C39.3323 22.1742 39.6256 22.2518 39.7956 22.3553C40.1214 22.5522 40.4388 22.7793 40.7448 22.9964C40.9006 23.1042 41.3723 23.3399 41.4007 23.5296C40.6428 23.5095 40.0548 23.5857 39.5633 23.7955C39.4216 23.8516 39.1949 23.8516 39.1751 24.0313C39.253 24.106 39.2643 24.2282 39.3309 24.3331C39.4443 24.5214 39.6398 24.7744 39.8211 24.9081C40.0194 25.0633 40.2178 25.2128 40.426 25.345C40.7943 25.5707 41.2123 25.7044 41.5735 25.9315C41.7789 26.0637 41.9886 26.2319 42.1968 26.3727C42.3002 26.4432 42.3668 26.5711 42.5 26.6156V26.5883C42.4348 26.5035 42.415 26.3814 42.3512 26.2865C42.2563 26.1916 42.1614 26.1068 42.0679 26.0134Z" fill="#524FA4"/>
<path fill-rule="evenodd" clip-rule="evenodd" d="M6.05556 0.000244141C2.9875 0.000244141 0.5 2.48774 0.5 5.5558V44.4447C0.5 47.5127 2.9875 50.0002 6.05556 50.0002H44.9444C48.0125 50.0002 50.5 47.5127 50.5 44.4447V5.5558C50.5 2.48774 48.0125 0.000244141 44.9444 0.000244141H6.05556ZM4.66667 45.8336V4.16691H46.3333V45.8336H4.66667Z" fill="#524FA4"/>
</svg>
