<svg width="53" height="50" viewBox="0 0 53 50" fill="none" xmlns="http://www.w3.org/2000/svg">
<path d="M5.70122 25.0002C5.70122 32.9202 10.4852 39.7577 17.4246 43.0002L7.50042 16.8602C6.34732 19.349 5.70122 22.0952 5.70122 25.0002ZM40.5451 23.9927C40.5451 21.5215 39.1632 19.8052 38.3741 18.4777C37.3172 16.8165 36.3253 15.4315 36.3253 13.7877C36.3253 11.9565 38.2376 10.2377 40.2786 10.2377C40.3709 10.2377 40.4541 10.2452 40.5464 10.2477C36.8492 6.98024 31.9183 5.00024 26.5012 5.00024C19.4955 5.00024 13.3023 8.33274 9.53362 13.4365C9.83002 13.529 9.93272 13.4852 10.3279 13.4852C12.4976 13.4852 15.8711 13.2352 15.8711 13.2352C16.9891 13.164 17.1256 14.7502 15.9998 14.8802C15.9998 14.8802 14.8766 15.0115 13.6234 15.0702L21.3337 37.2927L25.8837 24.1665L22.4998 15.1065C21.3805 15.049 20.3171 14.9165 20.3171 14.9165C19.1965 14.8465 19.3265 13.1977 20.4445 13.2715C20.4445 13.2715 23.8869 13.5215 25.9266 13.5215C28.1041 13.5215 31.4698 13.2715 31.4698 13.2715C32.5891 13.2002 32.7243 14.7865 31.605 14.9165C31.605 14.9165 30.474 15.0477 29.2234 15.1065L36.8817 37.119L38.9604 30.4615C40.0186 27.8615 40.5451 25.7115 40.5451 23.9927ZM26.8652 26.7452L20.6252 44.1852C22.492 44.7177 24.4602 45.0002 26.5012 45.0002C28.9205 45.0002 31.2449 44.5952 33.412 43.8665C33.36 43.7777 33.3015 43.6877 33.2586 43.5915L26.8652 26.7452ZM44.7558 15.3977C44.8481 16.0352 44.8962 16.7215 44.8962 17.454C44.8962 19.489 44.4984 21.7677 43.3115 24.6252L36.961 42.294C43.1464 38.829 47.2999 32.3777 47.2999 25.0002C47.2999 21.524 46.3756 18.2552 44.7558 15.3977Z" fill="#524FA4"/>
<path d="M0.5 25.0002C0.5 38.7802 12.161 50.0002 26.4987 50.0002C40.839 50.0002 52.5 38.7802 52.5 25.0002C52.5 11.2202 40.839 0.000244141 26.5 0.000244141C12.161 0.000244141 0.5 11.2202 0.5 25.0002ZM3.0935 25.0002C3.0935 12.5952 13.5897 2.50149 26.4987 2.50149C39.4077 2.50149 49.9065 12.5952 49.9065 25.0002C49.9065 37.4052 39.4077 47.5015 26.5 47.5015C13.5936 47.5015 3.0935 37.4052 3.0935 25.0002Z" fill="#524FA4"/>
</svg>
